<?xml version="1.0" encoding="UTF-8" standalone="no"?>
<svg
   xmlns:ns1="http://www.iki.fi/pav/software/textext/"
   xmlns:dc="http://purl.org/dc/elements/1.1/"
   xmlns:cc="http://creativecommons.org/ns#"
   xmlns:rdf="http://www.w3.org/1999/02/22-rdf-syntax-ns#"
   xmlns:svg="http://www.w3.org/2000/svg"
   xmlns="http://www.w3.org/2000/svg"
   xmlns:sodipodi="http://sodipodi.sourceforge.net/DTD/sodipodi-0.dtd"
   xmlns:inkscape="http://www.inkscape.org/namespaces/inkscape"
   sodipodi:docname="2.2.10.svg"
   inkscape:version="1.0 (4035a4fb49, 2020-05-01)"
   width="210mm"
   height="297mm"
   viewBox="0 0 210 297"
   version="1.1"
   id="svg8">
  <defs
     id="defs2">
    <rect
       id="rect2360"
       height="4.7775029"
       width="6.9374766"
       y="-66.734255"
       x="-85.512592" />
    <marker
       inkscape:isstock="true"
       style="overflow:visible"
       id="DiamondS"
       refX="0.0"
       refY="0.0"
       orient="auto"
       inkscape:stockid="DiamondS">
      <path
         transform="scale(0.2)"
         style="fill-rule:evenodd;stroke:#00ccff;stroke-width:1pt;stroke-opacity:1;fill:#00ccff;fill-opacity:1"
         d="M 0,-7.0710768 L -7.0710894,0 L 0,7.0710589 L 7.0710462,0 L 0,-7.0710768 z "
         id="path920" />
    </marker>
    <marker
       inkscape:isstock="true"
       style="overflow:visible"
       id="DotM"
       refX="0.0"
       refY="0.0"
       orient="auto"
       inkscape:stockid="DotM">
      <path
         transform="scale(0.4) translate(7.4, 1)"
         style="fill-rule:evenodd;stroke:#7137c8;stroke-width:1pt;stroke-opacity:1;fill:#7137c8;fill-opacity:1"
         d="M -2.5,-1.0 C -2.5,1.7600000 -4.7400000,4.0 -7.5,4.0 C -10.260000,4.0 -12.5,1.7600000 -12.5,-1.0 C -12.5,-3.7600000 -10.260000,-6.0 -7.5,-6.0 C -4.7400000,-6.0 -2.5,-3.7600000 -2.5,-1.0 z "
         id="path899" />
    </marker>
    <marker
       inkscape:isstock="true"
       style="overflow:visible"
       id="EmptyDiamondS"
       refX="0.0"
       refY="0.0"
       orient="auto"
       inkscape:stockid="EmptyDiamondS">
      <path
         transform="scale(0.2)"
         style="fill-rule:evenodd;fill:#ffffff;stroke:#000000;stroke-width:1pt;stroke-opacity:1"
         d="M 0,-7.0710768 L -7.0710894,0 L 0,7.0710589 L 7.0710462,0 L 0,-7.0710768 z "
         id="path947" />
    </marker>
    <marker
       inkscape:isstock="true"
       style="overflow:visible"
       id="Arrow1Lstart"
       refX="0.0"
       refY="0.0"
       orient="auto"
       inkscape:stockid="Arrow1Lstart">
      <path
         transform="scale(0.8) translate(12.5,0)"
         style="fill-rule:evenodd;stroke:#000000;stroke-width:1pt;stroke-opacity:1;fill:#000000;fill-opacity:1"
         d="M 0.0,0.0 L 5.0,-5.0 L -12.5,0.0 L 5.0,5.0 L 0.0,0.0 z "
         id="path835" />
    </marker>
    <marker
       inkscape:isstock="true"
       style="overflow:visible;"
       id="Arrow1Lend"
       refX="0.0"
       refY="0.0"
       orient="auto"
       inkscape:stockid="Arrow1Lend">
      <path
         transform="scale(0.8) rotate(180) translate(12.5,0)"
         style="fill-rule:evenodd;stroke:#000000;stroke-width:1pt;stroke-opacity:1;fill:#000000;fill-opacity:1"
         d="M 0.0,0.0 L 5.0,-5.0 L -12.5,0.0 L 5.0,5.0 L 0.0,0.0 z "
         id="path838" />
    </marker>
    <marker
       inkscape:stockid="DotM"
       orient="auto"
       refY="0"
       refX="0"
       id="DotM-2"
       style="overflow:visible"
       inkscape:isstock="true">
      <path
         id="path899-7"
         d="m -2.5,-1 c 0,2.76 -2.24,5 -5,5 -2.76,0 -5,-2.24 -5,-5 0,-2.76 2.24,-5 5,-5 2.76,0 5,2.24 5,5 z"
         style="fill:#7137c8;fill-opacity:1;fill-rule:evenodd;stroke:#7137c8;stroke-width:1pt;stroke-opacity:1"
         transform="matrix(0.4,0,0,0.4,2.96,0.4)" />
    </marker>
    <marker
       inkscape:stockid="DotM"
       orient="auto"
       refY="0"
       refX="0"
       id="DotM-9"
       style="overflow:visible"
       inkscape:isstock="true">
      <path
         id="path899-3"
         d="m -2.5,-1 c 0,2.76 -2.24,5 -5,5 -2.76,0 -5,-2.24 -5,-5 0,-2.76 2.24,-5 5,-5 2.76,0 5,2.24 5,5 z"
         style="fill:#7137c8;fill-opacity:1;fill-rule:evenodd;stroke:#7137c8;stroke-width:1pt;stroke-opacity:1"
         transform="matrix(0.4,0,0,0.4,2.96,0.4)" />
    </marker>
    <marker
       inkscape:stockid="DotM"
       orient="auto"
       refY="0"
       refX="0"
       id="DotM-0"
       style="overflow:visible"
       inkscape:isstock="true">
      <path
         id="path899-6"
         d="m -2.5,-1 c 0,2.76 -2.24,5 -5,5 -2.76,0 -5,-2.24 -5,-5 0,-2.76 2.24,-5 5,-5 2.76,0 5,2.24 5,5 z"
         style="fill:#7137c8;fill-opacity:1;fill-rule:evenodd;stroke:#7137c8;stroke-width:1pt;stroke-opacity:1"
         transform="matrix(0.4,0,0,0.4,2.96,0.4)" />
    </marker>
    <marker
       inkscape:stockid="DotM"
       orient="auto"
       refY="0"
       refX="0"
       id="DotM-6"
       style="overflow:visible"
       inkscape:isstock="true">
      <path
         id="path899-1"
         d="m -2.5,-1 c 0,2.76 -2.24,5 -5,5 -2.76,0 -5,-2.24 -5,-5 0,-2.76 2.24,-5 5,-5 2.76,0 5,2.24 5,5 z"
         style="fill:#00ccff;fill-opacity:1;fill-rule:evenodd;stroke:#00ccff;stroke-width:1pt;stroke-opacity:1"
         transform="matrix(0.4,0,0,0.4,2.96,0.4)" />
    </marker>
  </defs>
  <sodipodi:namedview
     inkscape:window-maximized="1"
     inkscape:window-y="0"
     inkscape:window-x="0"
     inkscape:window-height="1080"
     inkscape:window-width="1920"
     showgrid="false"
     inkscape:document-rotation="0"
     inkscape:current-layer="g1162"
     inkscape:document-units="mm"
     inkscape:cy="578.57666"
     inkscape:cx="365.91253"
     inkscape:zoom="1.4"
     inkscape:pageshadow="2"
     inkscape:pageopacity="0.0"
     borderopacity="1.0"
     bordercolor="#666666"
     pagecolor="#ffffff"
     id="base" />
  <metadata
     id="metadata5">
    <rdf:RDF>
      <cc:Work
         rdf:about="">
        <dc:format>image/svg+xml</dc:format>
        <dc:type
           rdf:resource="http://purl.org/dc/dcmitype/StillImage" />
        <dc:title></dc:title>
      </cc:Work>
    </rdf:RDF>
  </metadata>
  <g
     id="layer1"
     inkscape:groupmode="layer"
     inkscape:label="Layer 1">
    <path
       id="path833"
       d="m 100.14968,106.4595 v 77.07741 h 73.50985"
       style="fill:none;stroke:#000000;stroke-width:0.265;stroke-linecap:butt;stroke-linejoin:miter;stroke-opacity:1;stroke-miterlimit:4;stroke-dasharray:none;marker-start:url(#Arrow1Lstart);marker-end:url(#Arrow1Lend)" />
    <g
       style="stroke-width:0.371761"
       transform="matrix(0.94893535,0,0,0.94893535,169.78395,187.98465)"
       ns1:version="1.1.0"
       ns1:texconverter="pdflatex"
       ns1:pdfconverter="inkscape"
       ns1:text="$t$"
       ns1:preamble="/home/circle/.config/inkscape/extensions/textext/default_packages.tex"
       ns1:scale="1.0"
       ns1:alignment="middle center"
       ns1:jacobian_sqrt="0.352778"
       id="g1162">
      <defs
         id="id-6101bd36-fc6e-47db-aaa2-214912261c4f">
        <g
           id="id-8ec05725-1b02-46dc-808c-cc85049abcaa">
          <symbol
             id="id-742cfa98-bed9-4c30-bee0-f0b367685a7f"
             overflow="visible">
            <path
               id="id-d6d5bc3f-5ec1-4533-a764-9e0ee9548e67"
               d=""
               style="stroke:none" />
          </symbol>
          <symbol
             id="id-fe9f2bd2-6634-4312-b05f-d1b30c0ba1c2"
             overflow="visible">
            <path
               id="id-e0b4567f-adcf-4454-9398-ba6e05621709"
               d="m 2.046875,-3.984375 h 0.9375 c 0.203125,0 0.3125,0 0.3125,-0.203125 0,-0.109375 -0.109375,-0.109375 -0.28125,-0.109375 h -0.875 C 2.5,-5.71875 2.546875,-5.90625 2.546875,-5.96875 c 0,-0.171875 -0.125,-0.265625 -0.296875,-0.265625 -0.03125,0 -0.3125,0 -0.390625,0.359375 L 1.46875,-4.296875 h -0.9375 c -0.203125,0 -0.296875,0 -0.296875,0.1875 0,0.125 0.078125,0.125 0.28125,0.125 h 0.875 C 0.671875,-1.15625 0.625,-0.984375 0.625,-0.8125 0.625,-0.265625 1,0.109375 1.546875,0.109375 2.5625,0.109375 3.125,-1.34375 3.125,-1.421875 3.125,-1.53125 3.046875,-1.53125 3.015625,-1.53125 2.921875,-1.53125 2.90625,-1.5 2.859375,-1.390625 2.4375,-0.34375 1.90625,-0.109375 1.5625,-0.109375 c -0.203125,0 -0.3125,-0.125 -0.3125,-0.453125 0,-0.25 0.03125,-0.3125 0.0625,-0.484375 z m 0,0"
               style="stroke:none" />
          </symbol>
        </g>
      </defs>
      <g
         style="stroke-width:0.56969"
         transform="matrix(0.65256706,0,0,0.65256706,-96.451372,-85.612269)"
         id="id-d9f4daaf-049c-4f53-8634-a3c869d5ee15">
        <g
           id="id-3f71e369-21ba-4a86-8f19-9fdb4d05f093"
           style="fill:#000000;fill-opacity:1;stroke-width:0.56969">
          <g
             style="stroke-width:0.56969"
             transform="translate(148.712,134.765)"
             id="g1158">
            <path
               id="id-a05c53ac-c3a3-4f10-b2d5-15e27c19fed4"
               d="m 2.046875,-3.984375 h 0.9375 c 0.203125,0 0.3125,0 0.3125,-0.203125 0,-0.109375 -0.109375,-0.109375 -0.28125,-0.109375 h -0.875 C 2.5,-5.71875 2.546875,-5.90625 2.546875,-5.96875 c 0,-0.171875 -0.125,-0.265625 -0.296875,-0.265625 -0.03125,0 -0.3125,0 -0.390625,0.359375 L 1.46875,-4.296875 h -0.9375 c -0.203125,0 -0.296875,0 -0.296875,0.1875 0,0.125 0.078125,0.125 0.28125,0.125 h 0.875 C 0.671875,-1.15625 0.625,-0.984375 0.625,-0.8125 0.625,-0.265625 1,0.109375 1.546875,0.109375 2.5625,0.109375 3.125,-1.34375 3.125,-1.421875 3.125,-1.53125 3.046875,-1.53125 3.015625,-1.53125 2.921875,-1.53125 2.90625,-1.5 2.859375,-1.390625 2.4375,-0.34375 1.90625,-0.109375 1.5625,-0.109375 c -0.203125,0 -0.3125,-0.125 -0.3125,-0.453125 0,-0.25 0.03125,-0.3125 0.0625,-0.484375 z m 0,0"
               style="stroke:none;stroke-width:0.56969" />
          </g>
        </g>
      </g>
      <g
         style="stroke-width:0.388373"
         transform="matrix(0.67537728,0,0,0.67537728,-88.251019,-85.694335)"
         ns1:version="1.1.0"
         ns1:texconverter="pdflatex"
         ns1:pdfconverter="inkscape"
         ns1:text="$f(t)$"
         ns1:preamble="/home/circle/.config/inkscape/extensions/textext/default_packages.tex"
         ns1:scale="2.0"
         ns1:alignment="middle center"
         ns1:jacobian_sqrt="0.705556"
         id="g1360">
        <defs
           id="id-4820157a-e7a4-44fb-be38-b4f0d3a67e80">
          <g
             id="id-a633ba4a-c49a-46eb-b162-0ae365518b58">
            <symbol
               id="id-5c91d33b-ba5d-41dd-86e8-37184fac634e"
               overflow="visible">
              <path
                 id="id-4b9c2242-33d7-41d7-bed9-e0be3626e423"
                 d=""
                 style="stroke:none" />
            </symbol>
            <symbol
               id="id-a026fc09-aab4-431b-b053-fceeadc963d6"
               overflow="visible">
              <path
                 id="id-05498055-4df6-4c24-b6f3-8b8feebc820c"
                 d="m 3.65625,-3.984375 h 0.859375 c 0.203125,0 0.296875,0 0.296875,-0.203125 0,-0.109375 -0.09375,-0.109375 -0.265625,-0.109375 H 3.71875 L 3.921875,-5.4375 c 0.046875,-0.203125 0.1875,-0.90625 0.25,-1.03125 0.078125,-0.1875 0.25,-0.34375 0.46875,-0.34375 0.03125,0 0.296875,0 0.484375,0.1875 -0.4375,0.03125 -0.546875,0.390625 -0.546875,0.53125 0,0.234375 0.1875,0.359375 0.375,0.359375 C 5.21875,-5.734375 5.5,-5.96875 5.5,-6.34375 c 0,-0.453125 -0.453125,-0.6875 -0.859375,-0.6875 -0.34375,0 -0.96875,0.1875 -1.265625,1.171875 -0.0625,0.203125 -0.09375,0.3125 -0.328125,1.5625 h -0.6875 c -0.203125,0 -0.3125,0 -0.3125,0.1875 0,0.125 0.09375,0.125 0.28125,0.125 h 0.65625 L 2.25,-0.046875 c -0.1875,0.96875 -0.359375,1.875 -0.875,1.875 -0.046875,0 -0.28125,0 -0.484375,-0.1875 C 1.359375,1.609375 1.453125,1.25 1.453125,1.109375 1.453125,0.875 1.265625,0.75 1.078125,0.75 0.8125,0.75 0.53125,0.984375 0.53125,1.359375 c 0,0.4375 0.4375,0.6875 0.84375,0.6875 0.546875,0 0.953125,-0.59375 1.125,-0.96875 0.328125,-0.625 0.546875,-1.828125 0.5625,-1.90625 z m 0,0"
                 style="stroke:none" />
            </symbol>
            <symbol
               id="id-25c9cffc-27b1-4ddf-847d-7791f0fc06a5"
               overflow="visible">
              <path
                 id="id-0c419c5b-6c67-4541-bbdb-f29e65b33ccf"
                 d="m 2.046875,-3.984375 h 0.9375 c 0.203125,0 0.3125,0 0.3125,-0.203125 0,-0.109375 -0.109375,-0.109375 -0.28125,-0.109375 h -0.875 C 2.5,-5.71875 2.546875,-5.90625 2.546875,-5.96875 c 0,-0.171875 -0.125,-0.265625 -0.296875,-0.265625 -0.03125,0 -0.3125,0 -0.390625,0.359375 L 1.46875,-4.296875 h -0.9375 c -0.203125,0 -0.296875,0 -0.296875,0.1875 0,0.125 0.078125,0.125 0.28125,0.125 h 0.875 C 0.671875,-1.15625 0.625,-0.984375 0.625,-0.8125 0.625,-0.265625 1,0.109375 1.546875,0.109375 2.5625,0.109375 3.125,-1.34375 3.125,-1.421875 3.125,-1.53125 3.046875,-1.53125 3.015625,-1.53125 2.921875,-1.53125 2.90625,-1.5 2.859375,-1.390625 2.4375,-0.34375 1.90625,-0.109375 1.5625,-0.109375 c -0.203125,0 -0.3125,-0.125 -0.3125,-0.453125 0,-0.25 0.03125,-0.3125 0.0625,-0.484375 z m 0,0"
                 style="stroke:none" />
            </symbol>
            <symbol
               id="id-4bd2f199-5d6f-4afa-999c-4e9037f59970"
               overflow="visible">
              <path
                 id="id-d56d2891-2fd3-49de-8ddd-4e92e3198eab"
                 d=""
                 style="stroke:none" />
            </symbol>
            <symbol
               id="id-f6545b6e-91ac-4e76-b88d-629f1a9c1160"
               overflow="visible">
              <path
                 id="id-f361ed54-7f98-4f51-b88e-7ba3022e7a72"
                 d="m 3.296875,2.390625 c 0,-0.03125 0,-0.046875 -0.171875,-0.21875 C 1.890625,0.921875 1.5625,-0.96875 1.5625,-2.5 c 0,-1.734375 0.375,-3.46875 1.609375,-4.703125 0.125,-0.125 0.125,-0.140625 0.125,-0.171875 0,-0.078125 -0.03125,-0.109375 -0.09375,-0.109375 -0.109375,0 -1,0.6875 -1.59375,1.953125 -0.5,1.09375 -0.625,2.203125 -0.625,3.03125 0,0.78125 0.109375,1.984375 0.65625,3.125 C 2.25,1.84375 3.09375,2.5 3.203125,2.5 c 0.0625,0 0.09375,-0.03125 0.09375,-0.109375 z m 0,0"
                 style="stroke:none" />
            </symbol>
            <symbol
               id="id-92e6cd91-8fc0-4d77-af6b-8da11bcd9424"
               overflow="visible">
              <path
                 id="id-2e8a5a4a-4272-4ef2-93ae-654d096df79f"
                 d="m 2.875,-2.5 c 0,-0.765625 -0.109375,-1.96875 -0.65625,-3.109375 -0.59375,-1.21875 -1.453125,-1.875 -1.546875,-1.875 -0.0625,0 -0.109375,0.046875 -0.109375,0.109375 0,0.03125 0,0.046875 0.1875,0.234375 0.984375,0.984375 1.546875,2.5625 1.546875,4.640625 0,1.71875 -0.359375,3.46875 -1.59375,4.71875 C 0.5625,2.34375 0.5625,2.359375 0.5625,2.390625 0.5625,2.453125 0.609375,2.5 0.671875,2.5 0.765625,2.5 1.671875,1.8125 2.25,0.546875 2.765625,-0.546875 2.875,-1.65625 2.875,-2.5 Z m 0,0"
                 style="stroke:none" />
            </symbol>
          </g>
        </defs>
        <g
           style="stroke-width:0.388373"
           transform="translate(-149.243,-127.281)"
           id="id-433e349b-0434-497a-821d-f8190ed59aa6">
          <g
             id="id-e0948c82-4445-46dd-a134-c81408dfe800"
             style="fill:#000000;fill-opacity:1;stroke-width:0.388373">
            <g
               style="stroke-width:0.388373"
               transform="translate(148.712,134.765)"
               id="g1344">
              <path
                 id="id-924dd6a6-5878-459b-9218-b1f04886e437"
                 d="m 3.65625,-3.984375 h 0.859375 c 0.203125,0 0.296875,0 0.296875,-0.203125 0,-0.109375 -0.09375,-0.109375 -0.265625,-0.109375 H 3.71875 L 3.921875,-5.4375 c 0.046875,-0.203125 0.1875,-0.90625 0.25,-1.03125 0.078125,-0.1875 0.25,-0.34375 0.46875,-0.34375 0.03125,0 0.296875,0 0.484375,0.1875 -0.4375,0.03125 -0.546875,0.390625 -0.546875,0.53125 0,0.234375 0.1875,0.359375 0.375,0.359375 C 5.21875,-5.734375 5.5,-5.96875 5.5,-6.34375 c 0,-0.453125 -0.453125,-0.6875 -0.859375,-0.6875 -0.34375,0 -0.96875,0.1875 -1.265625,1.171875 -0.0625,0.203125 -0.09375,0.3125 -0.328125,1.5625 h -0.6875 c -0.203125,0 -0.3125,0 -0.3125,0.1875 0,0.125 0.09375,0.125 0.28125,0.125 h 0.65625 L 2.25,-0.046875 c -0.1875,0.96875 -0.359375,1.875 -0.875,1.875 -0.046875,0 -0.28125,0 -0.484375,-0.1875 C 1.359375,1.609375 1.453125,1.25 1.453125,1.109375 1.453125,0.875 1.265625,0.75 1.078125,0.75 0.8125,0.75 0.53125,0.984375 0.53125,1.359375 c 0,0.4375 0.4375,0.6875 0.84375,0.6875 0.546875,0 0.953125,-0.59375 1.125,-0.96875 0.328125,-0.625 0.546875,-1.828125 0.5625,-1.90625 z m 0,0"
                 style="stroke:none;stroke-width:0.388373" />
            </g>
          </g>
          <g
             id="id-82c23f7b-93cb-4e1c-a1a7-fa38d96ed3c0"
             style="fill:#000000;fill-opacity:1;stroke-width:0.388373">
            <g
               style="stroke-width:0.388373"
               transform="translate(154.662,134.765)"
               id="g1348">
              <path
                 id="id-f6203faa-8835-4fc9-98dc-12bfad4e58ff"
                 d="m 3.296875,2.390625 c 0,-0.03125 0,-0.046875 -0.171875,-0.21875 C 1.890625,0.921875 1.5625,-0.96875 1.5625,-2.5 c 0,-1.734375 0.375,-3.46875 1.609375,-4.703125 0.125,-0.125 0.125,-0.140625 0.125,-0.171875 0,-0.078125 -0.03125,-0.109375 -0.09375,-0.109375 -0.109375,0 -1,0.6875 -1.59375,1.953125 -0.5,1.09375 -0.625,2.203125 -0.625,3.03125 0,0.78125 0.109375,1.984375 0.65625,3.125 C 2.25,1.84375 3.09375,2.5 3.203125,2.5 c 0.0625,0 0.09375,-0.03125 0.09375,-0.109375 z m 0,0"
                 style="stroke:none;stroke-width:0.388373" />
            </g>
          </g>
          <g
             id="id-3d4ae092-c15a-42b4-aade-dac9035e9f6c"
             style="fill:#000000;fill-opacity:1;stroke-width:0.388373">
            <g
               style="stroke-width:0.388373"
               transform="translate(158.537,134.765)"
               id="g1352">
              <path
                 id="id-1c5665c9-46e9-4f8f-9c16-b5198b8dbcc9"
                 d="m 2.046875,-3.984375 h 0.9375 c 0.203125,0 0.3125,0 0.3125,-0.203125 0,-0.109375 -0.109375,-0.109375 -0.28125,-0.109375 h -0.875 C 2.5,-5.71875 2.546875,-5.90625 2.546875,-5.96875 c 0,-0.171875 -0.125,-0.265625 -0.296875,-0.265625 -0.03125,0 -0.3125,0 -0.390625,0.359375 L 1.46875,-4.296875 h -0.9375 c -0.203125,0 -0.296875,0 -0.296875,0.1875 0,0.125 0.078125,0.125 0.28125,0.125 h 0.875 C 0.671875,-1.15625 0.625,-0.984375 0.625,-0.8125 0.625,-0.265625 1,0.109375 1.546875,0.109375 2.5625,0.109375 3.125,-1.34375 3.125,-1.421875 3.125,-1.53125 3.046875,-1.53125 3.015625,-1.53125 2.921875,-1.53125 2.90625,-1.5 2.859375,-1.390625 2.4375,-0.34375 1.90625,-0.109375 1.5625,-0.109375 c -0.203125,0 -0.3125,-0.125 -0.3125,-0.453125 0,-0.25 0.03125,-0.3125 0.0625,-0.484375 z m 0,0"
                 style="stroke:none;stroke-width:0.388373" />
            </g>
          </g>
          <g
             id="id-53cb3894-57bf-4757-9bf4-618ae2b09710"
             style="fill:#000000;fill-opacity:1;stroke-width:0.388373">
            <g
               style="stroke-width:0.388373"
               transform="translate(162.134,134.765)"
               id="g1356">
              <path
                 id="id-6966bcfc-c644-494d-9758-10e9cecaa7e0"
                 d="m 2.875,-2.5 c 0,-0.765625 -0.109375,-1.96875 -0.65625,-3.109375 -0.59375,-1.21875 -1.453125,-1.875 -1.546875,-1.875 -0.0625,0 -0.109375,0.046875 -0.109375,0.109375 0,0.03125 0,0.046875 0.1875,0.234375 0.984375,0.984375 1.546875,2.5625 1.546875,4.640625 0,1.71875 -0.359375,3.46875 -1.59375,4.71875 C 0.5625,2.34375 0.5625,2.359375 0.5625,2.390625 0.5625,2.453125 0.609375,2.5 0.671875,2.5 0.765625,2.5 1.671875,1.8125 2.25,0.546875 2.765625,-0.546875 2.875,-1.65625 2.875,-2.5 Z m 0,0"
                 style="stroke:none;stroke-width:0.388373" />
            </g>
          </g>
        </g>
      </g>
      <path
         id="path1393"
         d="m -59.900057,-6.648466 v 4.555234"
         style="fill:none;stroke:#000000;stroke-width:0.278821px;stroke-linecap:butt;stroke-linejoin:miter;stroke-opacity:1" />
      <path
         style="fill:none;stroke:#000000;stroke-width:0.278821px;stroke-linecap:butt;stroke-linejoin:miter;stroke-opacity:1"
         d="m -44.249805,-6.6970224 v 4.55524"
         id="path1393-3" />
      <path
         style="fill:none;stroke:#000000;stroke-width:0.278821px;stroke-linecap:butt;stroke-linejoin:miter;stroke-opacity:1"
         d="m -28.635829,-6.6970224 v 4.55524"
         id="path1393-6" />
      <path
         style="fill:none;stroke:#000000;stroke-width:0.278821px;stroke-linecap:butt;stroke-linejoin:miter;stroke-opacity:1"
         d="m -13.021853,-6.6970224 v 4.55524"
         id="path1393-7" />
      <path
         id="path1393-3-3"
         d="m -71.210319,-28.855272 h -4.55524"
         style="fill:none;stroke:#000000;stroke-width:0.278821px;stroke-linecap:butt;stroke-linejoin:miter;stroke-opacity:1" />
      <path
         style="fill:none;stroke:#000000;stroke-width:0.278821px;stroke-linecap:butt;stroke-linejoin:miter;stroke-opacity:1"
         d="m -71.310659,-64.732709 h -4.55524"
         id="path1393-3-3-5" />
      <path
         id="path1458"
         d="m -73.307965,-28.913721 c 0,0 2.914836,10.561361 13.565802,12.472206"
         style="mix-blend-mode:normal;fill:none;stroke:#7137c8;stroke-width:0.49002284;stroke-linecap:butt;stroke-linejoin:miter;stroke-opacity:1;marker-end:url(#DotM);stroke-miterlimit:4;stroke-dasharray:none" />
      <ellipse
         ry="0.90762216"
         rx="0.88571239"
         cy="-28.800291"
         cx="-73.407463"
         id="path1654"
         style="fill:#ffffff;stroke:#7137c8;stroke-width:0.384642;stroke-linecap:square;stroke-miterlimit:4;stroke-dasharray:none" />
      <path
         style="mix-blend-mode:normal;fill:none;stroke:#7137c8;stroke-width:0.49002284;stroke-linecap:butt;stroke-linejoin:miter;stroke-opacity:1;marker-end:url(#DotM-2);stroke-miterlimit:4;stroke-dasharray:none"
         d="m -59.750039,-45.603259 c 0,0 3.291563,15.589554 15.319133,18.410149"
         id="path1458-0" />
      <path
         style="mix-blend-mode:normal;fill:none;stroke:#7137c8;stroke-width:0.49002284;stroke-linecap:butt;stroke-linejoin:miter;stroke-opacity:1;marker-end:url(#DotM-9);stroke-miterlimit:4;stroke-dasharray:none"
         d="m -44.231556,-58.191577 c 0,0 3.374504,19.16758 15.705155,22.635538"
         id="path1458-6" />
      <path
         style="mix-blend-mode:normal;fill:none;stroke:#7137c8;stroke-width:0.49002284;stroke-linecap:butt;stroke-linejoin:miter;stroke-opacity:1;marker-end:url(#DotM-0);stroke-miterlimit:4;stroke-dasharray:none"
         d="m -28.623282,-67.710138 c 0,0 3.367117,20.14334 15.670768,23.787842"
         id="path1458-2" />
      <path
         style="mix-blend-mode:normal;fill:none;stroke:#7137c8;stroke-width:0.49002284;stroke-linecap:butt;stroke-linejoin:miter;stroke-opacity:1;stroke-miterlimit:4;stroke-dasharray:none"
         d="m -13.02482,-74.357747 c 0,0 1.793927,12.744027 8.3490479,15.049784"
         id="path1458-8" />
      <text
         style="font-size:4.46114px;line-height:1.25;font-family:sans-serif;letter-spacing:0px;word-spacing:0px;white-space:pre;shape-inside:url(#rect2360);fill:#000000;"
         id="text2358"
         xml:space="preserve" />
      <text
         id="text2366"
         y="-62.837002"
         x="-86.205185"
         style="font-size:4.46114px;line-height:1.25;font-family:sans-serif;letter-spacing:0px;word-spacing:0px;stroke-width:0.103655"
         xml:space="preserve"><tspan
           style="stroke-width:0.103655"
           y="-62.837002"
           x="-86.205185"
           id="tspan2364"
           sodipodi:role="line">300</tspan></text>
      <text
         xml:space="preserve"
         style="font-size:4.46114px;line-height:1.25;font-family:sans-serif;letter-spacing:0px;word-spacing:0px;stroke-width:0.103655"
         x="-85.184341"
         y="-27.361706"
         id="text2366-2"><tspan
           sodipodi:role="line"
           id="tspan2364-3"
           x="-85.184341"
           y="-27.361706"
           style="stroke-width:0.103655">150</tspan></text>
      <text
         xml:space="preserve"
         style="font-size:4.46114px;line-height:1.25;font-family:sans-serif;letter-spacing:0px;word-spacing:0px;stroke-width:0.103655"
         x="-77.860382"
         y="-0.75092179"
         id="text2366-7"><tspan
           sodipodi:role="line"
           id="tspan2364-5"
           x="-77.860382"
           y="-0.75092179"
           style="stroke-width:0.103655">0</tspan></text>
      <text
         id="text2366-7-9"
         y="2.51612"
         x="-61.340565"
         style="font-size:4.46114px;line-height:1.25;font-family:sans-serif;letter-spacing:0px;word-spacing:0px;stroke-width:0.103655"
         xml:space="preserve"><tspan
           style="stroke-width:0.103655"
           y="2.51612"
           x="-61.340565"
           id="tspan2364-5-2"
           sodipodi:role="line">4</tspan></text>
      <text
         id="text2366-7-2"
         y="2.3105426"
         x="-45.708878"
         style="font-size:4.46114px;line-height:1.25;font-family:sans-serif;letter-spacing:0px;word-spacing:0px;stroke-width:0.103655"
         xml:space="preserve"><tspan
           style="stroke-width:0.103655"
           y="2.3105426"
           x="-45.708878"
           id="tspan2364-5-8"
           sodipodi:role="line">8</tspan></text>
      <text
         id="text2366-7-97"
         y="2.645623"
         x="-31.198139"
         style="font-size:4.46114px;line-height:1.25;font-family:sans-serif;letter-spacing:0px;word-spacing:0px;stroke-width:0.103655"
         xml:space="preserve"><tspan
           style="stroke-width:0.103655"
           y="2.645623"
           x="-31.198139"
           id="tspan2364-5-3"
           sodipodi:role="line">12</tspan></text>
      <text
         id="text2366-7-6"
         y="2.4400454"
         x="-15.701619"
         style="font-size:4.46114px;line-height:1.25;font-family:sans-serif;letter-spacing:0px;word-spacing:0px;stroke-width:0.103655"
         xml:space="preserve"><tspan
           style="stroke-width:0.103655"
           y="2.4400454"
           x="-15.701619"
           id="tspan2364-5-1"
           sodipodi:role="line">16</tspan></text>
      <ellipse
         style="fill:#ffffff;stroke:#7137c8;stroke-width:0.384642;stroke-linecap:square;stroke-miterlimit:4;stroke-dasharray:none"
         id="path1654-2"
         cx="-59.72438"
         cy="-45.564205"
         rx="0.88571239"
         ry="0.90762216" />
      <ellipse
         style="fill:#ffffff;stroke:#7137c8;stroke-width:0.384642;stroke-linecap:square;stroke-miterlimit:4;stroke-dasharray:none"
         id="path1654-9"
         cx="-44.273209"
         cy="-58.119549"
         rx="0.88571239"
         ry="0.90762216" />
      <ellipse
         style="fill:#ffffff;stroke:#7137c8;stroke-width:0.384642;stroke-linecap:square;stroke-miterlimit:4;stroke-dasharray:none"
         id="path1654-3"
         cx="-28.556147"
         cy="-67.676971"
         rx="0.88571239"
         ry="0.90762216" />
      <ellipse
         style="fill:#ffffff;stroke:#7137c8;stroke-width:0.384642;stroke-linecap:square;stroke-miterlimit:4;stroke-dasharray:none"
         id="path1654-1"
         cx="-13.018638"
         cy="-74.349747"
         rx="0.88571239"
         ry="0.90762216" />
    </g>
  </g>
</svg>
